<?xml version="1.0" encoding="UTF-8"?>
<svg width="141px" height="36px" viewBox="0 0 141 36" version="1.1" xmlns="http://www.w3.org/2000/svg" xmlns:xlink="http://www.w3.org/1999/xlink">
    <!-- Generator: Sketch 55 (78076) - https://sketchapp.com -->
    <title>Logo</title>
    <desc>Created with Sketch.</desc>
    <g id="Artwork" stroke="none" stroke-width="1" fill="none" fill-rule="evenodd">
        <g id="Holding-Pg-v04" transform="translate(-477.000000, -60.000000)" fill="#FFFFFF">
            <path d="M612.060735,95.7895311 L612.060735,60 L617.495741,60 L617.495741,95.7895311 L612.060735,95.7895311 Z M597.938585,67.1432843 C601.702957,67.1432843 604.672455,68.5028136 606.850191,71.2187611 C608.911262,73.8040445 609.942576,77.2168675 609.942576,81.454119 L609.942576,95.7649538 L604.49357,95.7649538 L604.49357,81.454119 C604.49357,78.4581769 603.863582,76.1777765 602.602051,74.6066957 C601.522516,73.2642772 599.968546,72.5938457 597.938585,72.5938457 C595.925735,72.5938457 594.379543,73.2642772 593.300008,74.6066957 C592.038477,76.1777765 591.410045,78.4581769 591.410045,81.454119 L591.410045,95.7649538 L585.959483,95.7649538 L585.959483,81.454119 C585.959483,78.4581769 585.331051,76.1777765 584.06952,74.6066957 C582.989985,73.2642772 581.443793,72.5938457 579.430943,72.5938457 C577.400982,72.5938457 575.847012,73.2642772 574.767477,74.6066957 C573.505946,76.1777765 572.877514,78.4519548 572.877514,81.4307862 L572.877514,95.7649538 L567.426952,95.7649538 L567.426952,67.1432843 L572.877514,67.1432843 L572.877514,69.4999054 C574.447039,67.9288247 576.632552,67.1432843 579.430943,67.1432843 C583.178204,67.1432843 586.139924,68.5028136 588.316104,71.2187611 C588.692542,71.7103072 589.036313,72.2329638 589.347418,72.7898419 C590.786279,69.0254702 593.651557,67.1432843 597.938585,67.1432843 Z M559.756812,81.4788519 L559.756812,81.4539635 C559.739701,79.016455 558.873273,76.9289398 557.154417,75.1945288 C555.420006,73.4756731 553.332491,72.6185785 550.894983,72.6185785 C548.440363,72.6185785 546.354404,73.4756731 544.635548,75.1945288 C542.901137,76.9289398 542.033154,79.016455 542.033154,81.4539635 C542.033154,83.9085827 542.901137,86.0038756 544.635548,87.7382866 C546.354404,89.4571423 548.440363,90.3157924 550.894983,90.3157924 C553.332491,90.3157924 555.420006,89.4571423 557.154417,87.7382866 C558.873273,86.0038756 559.739701,83.9163604 559.756812,81.4788519 Z M559.756812,71.1439404 L559.756812,67.1431287 L565.205817,67.1431287 L565.205817,95.7663538 L559.756812,95.7663538 L559.756812,91.788875 C557.54641,94.4394905 554.594022,95.7663538 550.894983,95.7663538 C546.934615,95.7663538 543.563791,94.3741584 540.782511,91.5928788 C537.984121,88.7929329 536.585703,85.4143314 536.585703,81.4539635 C536.585703,77.5107063 537.984121,74.1398825 540.782511,71.3399366 C543.563791,68.5431017 546.934615,67.1431287 550.894983,67.1431287 C554.594022,67.1431287 557.54641,68.4777696 559.756812,71.1439404 Z M521.696524,67.1432843 C525.804667,67.1432843 529.060382,68.4530368 531.465225,71.0709862 C533.854512,73.6718249 535.049155,77.1344247 535.049155,81.454119 L535.049155,95.7649538 L529.600149,95.7649538 L529.600149,81.454119 C529.600149,78.5421753 528.887719,76.3084406 527.464413,74.7529151 C526.139105,73.314054 524.216476,72.5938457 521.696524,72.5938457 C519.176573,72.5938457 517.253943,73.314054 515.92708,74.7529151 C514.503774,76.3084406 513.792899,78.5328421 513.792899,81.4307862 L513.792899,95.7649538 L508.342338,95.7649538 L508.342338,67.1432843 L513.792899,67.1432843 L513.792899,70.0894496 C515.625308,68.1263764 518.260368,67.1432843 521.696524,67.1432843 Z M500.672664,81.4788519 L500.672664,81.4539635 C500.655553,79.016455 499.789125,76.9289398 498.070269,75.1945288 C496.335858,73.4756731 494.248343,72.6185785 491.810835,72.6185785 C489.356215,72.6185785 487.270256,73.4756731 485.5514,75.1945288 C483.816989,76.9289398 482.949006,79.016455 482.949006,81.4539635 C482.949006,83.9085827 483.816989,86.0038756 485.5514,87.7382866 C487.270256,89.4571423 489.356215,90.3157924 491.810835,90.3157924 C494.248343,90.3157924 496.335858,89.4571423 498.070269,87.7382866 C499.789125,86.0038756 500.655553,83.9163604 500.672664,81.4788519 Z M500.672664,71.1439404 L500.672664,67.1431287 L506.12167,67.1431287 L506.12167,95.7663538 L500.672664,95.7663538 L500.672664,91.788875 C498.462262,94.4394905 495.509874,95.7663538 491.810835,95.7663538 C487.850467,95.7663538 484.479643,94.3741584 481.698363,91.5928788 C478.899973,88.7929329 477.5,85.4143314 477.5,81.4539635 C477.5,77.5107063 478.899973,74.1398825 481.698363,71.3399366 C484.479643,68.5431017 487.850467,67.1431287 491.810835,67.1431287 C495.509874,67.1431287 498.462262,68.4777696 500.672664,71.1439404 Z" id="Logo"></path>
        </g>
    </g>
</svg>