<?xml version="1.0" encoding="UTF-8"?>
<svg width="91px" height="59px" viewBox="0 0 91 59" version="1.1" xmlns="http://www.w3.org/2000/svg" xmlns:xlink="http://www.w3.org/1999/xlink">
    <!-- Generator: Sketch 54.1 (76490) - https://sketchapp.com -->
    <title>sm_logo_standard_with_lines_reverse</title>
    <desc>Created with Sketch.</desc>
    <g id="Artwork" stroke="none" stroke-width="1" fill="none" fill-rule="evenodd">
        <g id="Holding-Pg-v04" transform="translate(-479.000000, -767.000000)" fill="#FFFFFE">
            <g id="Group-11" transform="translate(479.000000, 767.000000)">
                <path d="M0.0153689192,59 L90.7611522,59 L90.7611522,56.7830334 L0.0153689192,56.7830334 L0.0153689192,59 Z M0,1.28970847 L90.7457833,1.28970847 L90.7457833,0 L0,0 L0,1.28970847 Z M87.3787093,39.5762476 C87.3185143,38.8257321 86.7255302,38.272451 85.6599518,38.272451 C84.6123038,38.272451 84.0001085,38.8257321 84.0001085,39.5762476 C84.0001085,40.267849 84.3958582,40.6238956 85.3436082,40.7622159 L87.0623657,40.9991534 C89.0974667,41.2745132 90.083639,42.2043328 90.083639,44.079341 C90.083639,46.3513795 88.2470532,47.5565589 85.679163,47.5565589 C82.9140382,47.5565589 81.3733041,46.3718714 81.2349838,44.2573643 L83.7042568,44.2573643 C83.7836629,45.0078798 84.237046,45.7788873 85.6996549,45.7788873 C86.8638505,45.7788873 87.6156468,45.2653092 87.6156468,44.3956845 C87.6156468,43.684872 87.3390062,43.2904031 86.2132329,43.1520828 L84.5533896,42.9343565 C82.6169058,42.6782078 81.5308355,41.749669 81.5308355,39.8720993 C81.5308355,38.0355135 82.9332494,36.4947793 85.6996549,36.4947793 C88.3264593,36.4947793 89.6302559,37.7191699 89.7890681,39.5762476 L87.3787093,39.5762476 Z M76.8881412,40.8800443 C76.789524,39.2996071 76.1773287,38.232748 74.7147199,38.232748 C73.352009,38.232748 72.6014935,39.2791152 72.4234702,40.9991534 L76.8881412,40.9991534 L76.8881412,40.8800443 Z M74.7544229,47.5373478 C71.4360171,47.5373478 69.7172596,45.3255042 69.7172596,42.0250288 C69.7172596,38.8257321 71.5538455,36.4947793 74.7352118,36.4947793 C78.1919378,36.4947793 79.5943517,38.8654351 79.5943517,41.8085832 L79.5943517,42.6577159 L72.404259,42.6577159 C72.5220874,44.6531139 73.2930948,45.7007619 74.8530401,45.7007619 C76.2759459,45.7007619 76.689626,44.9489656 76.86893,44.3162785 L79.4752426,44.3162785 C79.1396878,46.3321684 77.4606334,47.5373478 74.7544229,47.5373478 Z M65.2320967,41.0183646 C65.2320967,40.267849 65.2128856,39.5762476 64.896542,39.1407949 C64.5801984,38.706623 64.0666204,38.5093885 63.4339332,38.5093885 C61.853496,38.5093885 61.0645581,39.5160527 61.0645581,41.1169818 L61.0645581,47.2799184 L58.3967699,47.2799184 L58.3967699,36.750928 L60.945449,36.750928 L60.945449,38.5093885 L60.9851521,38.5093885 C61.5384332,37.4425294 62.6437146,36.5139905 64.4021751,36.5139905 C66.7536197,36.5139905 67.8986042,37.7191699 67.8986042,40.267849 L67.8986042,47.2799184 L65.2320967,47.2799184 L65.2320967,41.0183646 Z M53.2609894,47.2799184 L55.9287776,47.2799184 L55.9287776,36.750928 L53.2609894,36.750928 L53.2609894,47.2799184 Z M53.2404975,34.7350381 L55.9467081,34.7350381 L55.9467081,32.2273428 L53.2404975,32.2273428 L53.2404975,34.7350381 Z M48.2622485,40.9991534 C48.2622485,40.2486379 48.2430373,39.5762476 47.9266937,39.1407949 C47.6103501,38.706623 47.0967721,38.5093885 46.4640849,38.5093885 C44.8849285,38.5093885 44.0934291,39.5160527 44.0934291,41.1169818 L44.0934291,47.2799184 L41.4269217,47.2799184 L41.4269217,31.7137647 L44.0934291,31.7137647 L44.0934291,38.4504743 L44.1344129,38.4504743 C44.587796,37.4822324 45.6943582,36.5139905 47.4323268,36.5139905 C49.7837715,36.5139905 50.9287559,37.7191699 50.9287559,40.267849 L50.9287559,47.2799184 L48.2622485,47.2799184 L48.2622485,40.9991534 Z M36.8034385,40.3267632 C36.7048212,39.220201 36.092626,38.3313652 34.7888293,38.3313652 C33.0700719,38.3313652 32.3989624,39.9707166 32.3989624,41.9866065 C32.3989624,43.8821065 32.8728374,45.6610589 34.7696182,45.6610589 C36.3487746,45.6610589 36.8636334,44.4750906 36.9033364,43.5465518 L39.4712267,43.5465518 C39.3124145,46.1938481 37.3580003,47.5373478 34.7491263,47.5373478 C31.4896347,47.5373478 29.6735407,45.4433325 29.6735407,42.0250288 C29.6735407,38.6874118 31.6087438,36.4947793 34.7888293,36.4947793 C37.3580003,36.4947793 39.2932034,37.7191699 39.4123125,40.3267632 L36.8034385,40.3267632 Z M25.0090737,42.7166301 L25.0090737,42.4207784 C23.1532767,42.5193957 22.1658237,42.6782078 21.6125426,43.0726768 C21.2372848,43.3288254 21.0784727,43.7245751 21.0784727,44.2176612 C21.0784727,45.0885667 21.6509649,45.640567 22.6192068,45.640567 C23.7846832,45.640567 25.0090737,44.7709423 25.0090737,42.7166301 Z M18.9050513,39.793974 C18.9844574,37.7780841 20.5841058,36.5139905 23.251894,36.5139905 C26.3730653,36.5139905 27.5782447,37.798576 27.5782447,40.6034037 L27.5782447,44.4750906 C27.5782447,45.1462001 27.7754792,45.4036295 28.4670806,45.4036295 L28.4670806,47.3196214 L27.716565,47.3196214 C26.155339,47.3196214 25.4842295,46.9251525 25.2075889,45.7199731 L25.147394,45.7199731 C24.5351987,46.8060434 23.4299173,47.4182387 21.9083943,47.4182387 C19.7554649,47.4182387 18.4311763,46.2732542 18.4311763,44.3367704 C18.4311763,43.1315909 18.9460351,42.2427551 20.0128943,41.689474 C21.1181757,41.1169818 22.717824,40.9786615 24.9898626,40.8800443 L24.9898626,40.3459743 C24.9898626,38.9243493 24.4365815,38.272451 23.2326828,38.272451 C22.0070115,38.272451 21.4934335,38.9640524 21.4550112,39.793974 L18.9050513,39.793974 Z M0.691601363,32.1684286 L4.60683353,32.1684286 L7.72800486,41.2553021 C8.16217683,42.5193957 8.37990318,43.3890203 8.37990318,43.3890203 L8.41960623,43.3890203 C8.41960623,43.3890203 8.61684069,42.5193957 9.05101266,41.2360909 L12.1926759,32.1684286 L16.3166692,32.1684286 L16.3166692,47.2799184 L13.5707556,47.2799184 L13.5707556,35.0526624 L13.5118414,35.0526624 C13.5118414,35.0526624 13.2352009,36.2181388 12.6422168,37.9561074 L9.46213124,47.2799184 L7.28870992,47.2799184 L4.14832744,37.9561074 C3.5553433,36.2181388 3.27870276,35.0526624 3.27870276,35.0526624 L3.21978857,35.0526624 L3.21978857,47.2799184 L0.691601363,47.2799184 L0.691601363,32.1684286 Z M58.7515358,19.6696551 C58.7118328,17.9304057 58.0215121,16.5881868 56.2041375,16.5881868 C54.5442942,16.5881868 53.6349665,17.8919834 53.4185209,19.7874834 L58.7515358,19.7874834 L58.7515358,19.6696551 Z M56.2822628,26.1694271 C53.1021773,26.1694271 51.5806543,23.8576855 51.5806543,20.7557254 C51.5806543,17.6742571 53.2404975,15.2446871 56.2233486,15.2446871 C59.3445199,15.2446871 60.5701912,17.6550459 60.5701912,20.2818503 L60.5701912,21.1898973 L53.398029,21.1898973 C53.5171381,23.3428268 54.3867628,24.8054356 56.3424577,24.8054356 C58.0804263,24.8054356 58.5350902,23.7974906 58.7118328,23.1852953 L60.4305902,23.1852953 C60.0553325,24.9834589 58.5145983,26.1694271 56.2822628,26.1694271 Z M47.6295613,25.9119977 L49.4072329,25.9119977 L49.4072329,10.3458441 L47.6295613,10.3458441 L47.6295613,25.9119977 Z M40.8544294,24.7657325 C42.7102264,24.7657325 43.6195541,23.2851933 43.6195541,20.5584909 C43.6195541,18.3466473 42.9676558,16.6663121 40.8339375,16.6663121 C38.9960709,16.6663121 37.8702976,18.2275382 37.8702976,19.9847179 L37.8702976,21.0912801 C37.8702976,23.146873 38.8782426,24.7657325 40.8544294,24.7657325 Z M36.1528209,15.5008357 L37.8702976,15.5008357 L37.8702976,17.2388044 L37.9100007,17.2388044 C38.5221959,16.1335229 39.64925,15.2446871 41.2284065,15.2446871 C43.4415308,15.2446871 45.4164369,16.6073979 45.4164369,20.5584909 C45.4164369,24.3507717 43.4620227,26.1694271 41.1105781,26.1694271 C39.5890551,26.1694271 38.3646645,25.3190136 37.9701956,24.3904747 L37.9304925,24.3904747 L37.9304925,29.6248725 L36.1528209,29.6248725 L36.1528209,15.5008357 Z M18.4913713,15.5008357 L20.1704257,15.5008357 L20.1704257,17.2592962 L20.208848,17.2592962 C20.6840037,16.1924371 21.8879024,15.2446871 23.5477457,15.2446871 C25.1281829,15.2446871 26.3128704,15.9554996 26.6881282,17.3976165 L26.7278312,17.3976165 C27.1235809,16.3115462 28.4068856,15.2446871 30.1256431,15.2446871 C32.0813381,15.2446871 33.4248377,16.1924371 33.4248377,18.6617101 L33.4248377,25.9119977 L31.6471661,25.9119977 L31.6471661,19.4724206 C31.6471661,18.7219051 31.6471661,17.9111946 31.2719083,17.3976165 C30.9158617,16.9032496 30.3433694,16.7252263 29.6517681,16.7252263 C27.7152843,16.7252263 26.8469403,17.9713895 26.8469403,19.6696551 L26.8469403,25.9119977 L25.0692687,25.9119977 L25.0692687,19.4724206 C25.0692687,18.7219051 25.0692687,17.9304057 24.6927302,17.4181084 C24.3379643,16.9237415 23.765472,16.7252263 23.0738707,16.7252263 C21.1373868,16.7252263 20.2677622,17.9713895 20.2677622,19.629952 L20.2677622,25.9119977 L18.4913713,25.9119977 L18.4913713,15.5008357 Z M13.7692708,25.910717 L15.5661536,25.910717 L15.5661536,15.5008357 L13.7692708,15.5008357 L13.7692708,25.910717 Z M13.7295678,13.1314607 L15.6058567,13.1314607 L15.6058567,11.214188 L13.7295678,11.214188 L13.7295678,13.1314607 Z M8.80895218,14.8489374 C8.63220961,13.3683982 7.78307682,12.0441097 5.66856969,12.0441097 C3.61425749,12.0441097 2.50897606,13.209586 2.50897606,14.651703 C2.50897606,16.0349057 3.25821087,16.8251243 5.03716326,17.160679 L7.17088154,17.5359368 C10.1140296,18.0700067 11.1411857,19.5108429 11.1411857,21.6650531 C11.1411857,24.4301778 9.26361604,26.2078494 5.64935854,26.2078494 C2.15292943,26.2078494 0.157531422,24.3315606 0,21.6650531 L1.91599192,21.6650531 C2.13371828,23.2851933 3.25821087,24.7260295 5.68906158,24.7260295 C8.37606095,24.7260295 9.26361604,23.4222328 9.26361604,21.8225845 C9.26361604,20.5187879 8.55280353,19.6094601 6.69700653,19.2943973 L4.5824994,18.9191395 C1.61885949,18.3658584 0.57249224,16.7854212 0.57249224,14.8092344 C0.57249224,12.3604533 2.5871014,10.5827816 5.68906158,10.5827816 C8.889639,10.5827816 10.5482015,12.2810472 10.6865218,14.8489374 L8.80895218,14.8489374 L8.80895218,14.8489374 Z" id="sm_logo_standard_with_lines_reverse"></path>
            </g>
        </g>
    </g>
</svg>