<svg id="Layer_1" data-name="Layer 1" xmlns="http://www.w3.org/2000/svg" viewBox="0 0 348 195.56"><title>Logo2018</title><path d="M256.06,23.54H189.89l30.49,52.81H261.5a4.43,4.43,0,1,1,0,8.86h-36L256,138h.08a57.24,57.24,0,0,0,0-114.48Z"/><polygon points="100.92 23.54 67.87 80.78 34.82 138.01 100.52 138.01 133.76 80.44 100.92 23.54"/><polygon points="145.15 80.44 144.95 80.78 139.46 90.3 111.9 138.01 167.01 138.01 177.6 138.01 178 137.34 210.85 80.44 178 23.54 145.15 80.44"/><path d="M61.09,157.72v14H58V161.56h0L50.2,171.72H46.34V161.56h0l-7.72,10.16H34.7l10.64-14h4.12v9.88L57,157.72Z"/><path d="M70.74,157.72h3l6.2,14H76.58l-1.2-2.86h-6.3l-1.22,2.86H64.5Zm3.58,8.56-2.06-5H72.2l-2.08,5Z"/><path d="M93.52,160.38H88.76v11.34H85.62V160.38H80.86v-2.66H93.52Z"/><path d="M109,160.38h-4.76v11.34h-3.14V160.38H96.38v-2.66H109Z"/><path d="M123.16,169.12v2.6H112.7v-14h3.14v11.4Z"/><path d="M126.74,157.72h3.14v14h-3.14Z"/><path d="M147.36,157.72v14h-2.52l-7.38-8.58v8.58h-3.14v-14h2.46l7.44,8.78v-8.78Z"/><path d="M165.18,164.72c0,4.24-3.06,7-7.84,7H151.8v-14h5.54C162.12,157.72,165.18,160.48,165.18,164.72Zm-3.2,0c0-2.6-1.94-4.32-4.86-4.32h-2.18V169h2.18C160,169,162,167.32,162,164.72Z"/><path d="M168.8,167.26h3.12c.28,1.22,1.42,2.24,3.42,2.24,1.46,0,2.42-.62,2.4-1.56,0-3.06-8.32-.36-8.4-6.2,0-2.6,2.2-4.34,5.56-4.34s5.8,1.74,6.08,4.4h-3.16a2.5,2.5,0,0,0-2.72-1.92c-1.42,0-2.38.64-2.36,1.66,0,3.16,8.26.52,8.32,6.14,0,2.62-2.26,4.34-5.74,4.34C171.58,172,169.14,170.2,168.8,167.26Z"/><path d="M190.22,157.72h3l6.2,14h-3.34l-1.2-2.86h-6.3l-1.22,2.86H184Zm3.58,8.56-2.06-5h-.06l-2.08,5Z"/><path d="M205.88,167.36l-5.74-9.64h3.48l3.82,6.52,3.86-6.52h3.48L209,167.34v4.38h-3.16Z"/><path d="M238.1,164.72c0,4.26-3,7-7.58,7h-4.86v-14h4.86C235.1,157.72,238.1,160.46,238.1,164.72Zm-1.2,0c0-3.64-2.58-6-6.48-6h-3.58v12h3.58C234.32,170.7,236.9,168.36,236.9,164.72Z"/><path d="M244.48,158.74v5.5h7.86v1h-7.86v5.44h8.7v1H243.3v-14h9.88v1Z"/><path d="M257.54,167.38h1.16c.42,2.34,2,3.62,4.84,3.62,2.52,0,4.08-1.22,4.06-3,0-4.56-9.4-1.22-9.44-6.76,0-2.2,1.88-3.82,5-3.82s5.14,1.42,5.56,3.88h-1.18c-.38-1.82-1.92-2.9-4.32-2.9s-3.86,1.24-3.84,2.8c0,4.42,9.36,1.12,9.4,6.72,0,2.48-2.18,4-5.3,4C260,172,257.9,170.3,257.54,167.38Z"/><path d="M273.94,157.72h1.18v14h-1.18Z"/><path d="M280.3,164.72a7.14,7.14,0,0,1,7.5-7.28,6.79,6.79,0,0,1,6.84,4.7h-1.26a5.55,5.55,0,0,0-5.58-3.62,6.2,6.2,0,1,0-.08,12.4,5.44,5.44,0,0,0,5.64-5.22h-6v-1h7.26c0,4.46-2.78,7.3-6.9,7.3A7.07,7.07,0,0,1,280.3,164.72Z"/><path d="M311.92,157.72v14h-1.06L301,159.62v12.1h-1.18v-14h1l9.84,12.16V157.72Z"/></svg>